<?xml version="1.0" standalone="no"?>
<!DOCTYPE svg PUBLIC "-//W3C//DTD SVG 20010904//EN"
 "http://www.w3.org/TR/2001/REC-SVG-20010904/DTD/svg10.dtd">
<svg version="1.0" xmlns="http://www.w3.org/2000/svg"
 width="1200.000000pt" height="1164.000000pt" viewBox="0 0 1200.000000 1164.000000"
 preserveAspectRatio="xMidYMid meet"><style>svg{color:#14151a}@media (prefers-color-scheme:dark){svg{color:#ffffff}}</style>
<metadata>
Created by potrace 1.16, written by Peter Selinger 2001-2019
</metadata>
<g transform="translate(0.000000,1164.000000) scale(0.100000,-0.100000)"
fill="currentColor" stroke="none">
<path d="M5845 11634 c-27 -2 -115 -8 -195 -14 -433 -31 -1113 -138 -1458
-231 -986 -264 -1855 -824 -2453 -1580 -106 -135 -271 -371 -356 -511 -106
-173 -205 -426 -268 -686 -31 -125 -22 -116 -130 -127 -235 -25 -383 -98 -444
-220 -30 -61 -25 -105 24 -185 20 -33 35 -67 32 -74 -5 -12 -37 -34 -292 -192
-225 -139 -286 -198 -301 -290 -11 -71 10 -116 116 -248 133 -166 317 -371
489 -545 78 -78 148 -156 156 -171 19 -37 32 -135 40 -295 24 -516 155 -1197
326 -1690 111 -322 274 -641 493 -965 303 -449 759 -861 1256 -1135 58 -32
161 -91 230 -130 289 -168 572 -295 1028 -461 30 -11 42 -21 38 -30 -18 -46
-230 -344 -245 -344 -25 0 -117 79 -219 188 -64 69 -144 154 -177 189 l-61 65
-63 -59 -63 -58 20 -53 c32 -82 92 -176 189 -296 48 -59 96 -119 105 -131 l18
-23 -66 14 c-75 16 -250 73 -513 169 -101 36 -206 69 -232 72 -46 5 -49 4
-104 -47 l-56 -54 48 -48 c90 -92 189 -144 468 -245 172 -62 287 -112 280
-123 -3 -4 -57 -45 -121 -90 -112 -79 -265 -214 -285 -252 -8 -15 1 -25 58
-62 37 -24 85 -48 106 -54 74 -20 168 27 355 176 129 103 211 157 274 177 43
15 57 14 192 -5 154 -21 396 -28 396 -10 0 16 -41 163 -51 182 -5 10 -70 37
-164 68 -150 50 -154 52 -143 73 20 38 121 200 153 247 18 25 71 100 118 166
l86 121 83 -13 c180 -30 572 -84 728 -101 129 -14 245 -18 535 -18 408 1 436
3 960 85 138 21 308 44 379 51 151 13 128 27 214 -126 56 -100 167 -344 159
-351 -2 -2 -67 5 -143 16 -391 59 -473 70 -513 70 l-43 0 6 -37 c16 -88 39
-147 67 -174 30 -28 148 -75 261 -104 35 -9 69 -20 77 -24 16 -9 -10 -26 -319
-201 -118 -67 -229 -133 -247 -146 -31 -24 -93 -132 -93 -164 0 -22 105 -50
187 -50 51 0 76 9 203 69 392 186 445 209 448 201 2 -5 -10 -58 -27 -117 -55
-194 -51 -250 21 -329 32 -35 47 -44 73 -44 71 0 156 148 225 390 43 150 82
258 108 298 21 32 105 87 255 166 70 37 154 88 187 113 52 39 62 51 74 96 22
79 26 158 9 164 -21 8 -156 -14 -225 -38 -46 -15 -208 -88 -259 -116 -4 -2
-48 74 -99 169 -50 95 -116 210 -146 255 -29 45 -50 84 -46 87 4 2 43 14 87
26 461 128 1048 374 1405 589 242 146 651 454 885 668 235 214 641 642 810
853 83 104 294 420 420 630 196 328 261 461 414 843 49 122 112 274 139 338
87 203 140 387 222 767 40 187 41 195 28 255 l-13 62 -596 -3 -595 -3 -17 113
c-75 474 -209 1012 -328 1313 -83 212 -270 583 -414 825 -178 298 -470 728
-594 876 -372 445 -868 841 -1436 1151 -173 94 -312 153 -524 223 -315 104
-625 172 -931 205 -138 15 -589 27 -695 19z m760 -312 c831 -131 1578 -502
2226 -1104 233 -217 445 -473 663 -803 406 -612 603 -984 741 -1400 64 -191
95 -314 170 -665 73 -342 96 -435 152 -602 l45 -138 97 0 c53 0 240 7 416 15
176 9 375 15 441 13 l121 -3 -28 -140 c-15 -77 -44 -192 -63 -255 -45 -150
-310 -809 -391 -975 -115 -234 -417 -719 -598 -960 -105 -140 -200 -249 -414
-478 -540 -576 -1014 -953 -1508 -1197 -319 -157 -853 -357 -1160 -434 -150
-37 -770 -143 -1025 -175 -314 -40 -406 -46 -700 -46 -242 1 -331 5 -495 24
-732 83 -1158 180 -1544 348 -158 68 -667 345 -886 481 -302 188 -575 431
-802 714 -514 641 -813 1443 -930 2493 -22 200 -26 881 -5 1065 29 266 99 678
121 719 5 9 11 -8 16 -45 11 -90 68 -306 113 -425 110 -293 261 -534 467 -748
295 -305 629 -461 987 -461 451 1 836 267 1058 732 119 250 175 508 187 859
l6 187 71 15 c39 9 211 48 381 86 975 219 1877 393 2285 442 221 26 591 36
755 20 175 -17 407 -58 494 -87 175 -59 295 -153 540 -422 226 -249 314 -324
467 -397 275 -132 524 -175 719 -125 91 23 107 36 146 111 l28 56 -30 64 c-47
100 -107 174 -261 325 -547 537 -1172 868 -1791 949 -140 18 -672 21 -953 5
-725 -41 -1479 -159 -2579 -404 -208 -47 -380 -84 -380 -83 -1 1 -17 40 -35
87 -121 308 -304 596 -509 800 -204 203 -410 328 -667 405 -109 33 -314 45
-446 25 -76 -11 -236 -48 -283 -66 -47 -18 226 271 405 429 391 343 824 608
1310 800 473 187 919 283 1670 361 338 35 305 34 700 31 300 -2 375 -6 485
-23z m-4016 -1692 c242 -31 488 -166 716 -395 174 -174 293 -352 395 -588 129
-303 181 -558 182 -902 1 -284 -35 -499 -119 -710 -143 -363 -439 -646 -741
-710 -39 -9 -125 -15 -203 -15 -112 0 -154 4 -231 24 -190 48 -375 158 -551
326 -529 505 -756 1336 -562 2058 149 555 526 906 990 921 22 0 78 -4 124 -9z
m5341 -845 c372 -60 761 -233 1170 -520 253 -178 499 -395 596 -527 45 -61 89
-137 82 -143 -8 -7 -233 18 -320 35 -190 39 -372 118 -486 212 -33 26 -139
137 -235 246 -287 321 -378 385 -677 475 -195 59 -333 78 -605 84 -609 13
-1377 -111 -3177 -515 l-347 -78 -5 25 c-9 47 -27 193 -24 196 13 12 743 176
1088 244 866 171 1286 232 1810 261 277 15 306 16 690 18 269 1 366 -1 440
-13z m-6654 -471 c41 -5 42 -6 48 -51 11 -79 7 -163 -6 -163 -7 0 -48 11 -91
25 -97 31 -133 31 -280 0 -162 -34 -157 -35 -195 31 -18 31 -32 60 -32 65 0
11 80 51 147 73 84 28 275 37 409 20z m-401 -691 c-46 -334 -100 -627 -115
-621 -28 12 -426 466 -416 475 2 3 127 85 277 184 186 122 275 175 277 165 2
-8 -9 -99 -23 -203z M6123 4748 c-78 -32 -77 -32 -88 -133 -21 -198 108 -482
322 -706 167 -175 423 -311 781 -413 196 -57 293 -70 512 -70 158 0 219 4 324
23 311 55 589 165 851 339 328 217 537 421 574 560 21 77 -17 151 -87 169 -51
13 -96 -14 -232 -139 -376 -348 -678 -523 -1034 -600 -88 -19 -132 -22 -341
-23 -215 0 -251 2 -348 23 -223 48 -439 138 -617 257 -179 119 -292 265 -438
568 -48 97 -91 177 -97 176 -5 0 -42 -14 -82 -31z M2285 9366 c-364 -71 -642
-365 -749 -791 -35 -138 -46 -243 -46 -425 1 -385 102 -722 310 -1034 222
-331 537 -533 875 -560 61 -5 86 -3 100 8 18 13 18 15 2 40 -16 24 -23 26 -90
26 l-72 1 -500 691 c-275 379 -506 707 -513 727 -8 22 -12 73 -10 134 l3 97
310 -412 c404 -537 673 -899 797 -1073 56 -77 103 -142 105 -145 2 -2 8 2 14
10 10 15 7 -7 -11 -77 -10 -40 -4 -41 98 -13 277 77 520 308 647 615 64 154
94 308 102 525 12 320 -49 611 -186 896 -87 180 -159 282 -291 415 -174 175
-324 271 -507 325 -109 32 -282 41 -388 20z m532 -643 c236 -296 505 -635 596
-754 l166 -215 -10 -100 c-16 -156 -85 -444 -107 -444 -23 0 -189 197 -593
705 -583 732 -909 1147 -909 1156 0 9 142 110 190 134 57 30 142 54 191 54
l46 1 430 -537z"/>
</g>
</svg>
