<?xml version="1.0" encoding="UTF-8"?>
<svg xmlns="http://www.w3.org/2000/svg" width="603.000000pt" height="573.000000pt" viewBox="0 0 603.000000 573.000000" preserveAspectRatio="xMidYMid meet">
<title>Chick Video Games isotype — color</title>
<g transform="translate(0.000000,573.000000) scale(0.100000,-0.100000)" fill="#FDC63A" stroke="none">
<path d="M2925 5453 c-138 -7 -440 -46 -580 -74 -191 -38 -360 -94 -522 -173
-247 -121 -395 -227 -597 -429 -139 -139 -139 -139 -105 -173 34 -33 34 -33
94 -17 84 23 226 22 295 -1 215 -72 352 -211 465 -472 19 -43 46 -90 62 -105
28 -28 28 -28 273 26 473 104 813 156 1160 176 411 23 606 -9 862 -144 191
-100 408 -277 462 -376 37 -69 30 -76 -82 -75 -68 1 -103 7 -162 29 -127 47
-148 62 -304 220 -177 179 -208 197 -378 227 -154 27 -397 20 -618 -17 -205
-34 -641 -122 -914 -184 -200 -45 -221 -52 -251 -81 -32 -31 -32 -31 -38 -158
-16 -401 -209 -642 -513 -642 -140 0 -255 39 -374 129 -128 96 -256 324 -299
532 -9 41 -20 64 -44 87 -33 32 -33 32 -64 0 -37 -39 -54 -110 -79 -326 -20
-166 -14 -490 11 -652 58 -377 168 -683 336 -936 54 -82 111 -148 228 -265
170 -171 238 -222 472 -350 275 -150 427 -206 679 -248 420 -70 629 -68 1094
9 228 38 357 74 565 156 351 139 537 267 866 598 183 184 279 294 367 421 63
90 187 293 222 364 51 101 180 442 204 539 26 102 26 102 -9 138 -34 36 -34
36 -264 29 l-230 -6 -19 68 c-10 37 -36 149 -57 248 -52 236 -98 370 -184 540
-73 145 -227 395 -324 525 -69 93 -300 331 -401 413 -299 242 -667 395 -1022
427 -109 9 -152 10 -283 3z m330 -3459 c121 -122 251 -189 426 -220 106 -18
233 -14 334 12 134 35 292 129 430 256 39 36 81 70 93 77 22 12 23 11 17 -11
-15 -46 -55 -92 -127 -145 -141 -106 -259 -164 -413 -205 -117 -32 -329 -32
-438 0 -123 35 -229 79 -295 122 -93 60 -175 191 -187 303 -6 52 -6 52 37 -28
29 -54 69 -106 123 -161z M485 3719 c-66 -44 -135 -94 -153 -112 -33 -33 -33
-33 -2 -73 18 -21 75 -86 128 -143 96 -103 96 -103 132 -65 34 37 37 46 58
174 39 246 39 227 1 266 -18 19 -35 34 -38 33 -4 0 -60 -36 -126 -80z"/>
</g>
<g transform="translate(0.000000,573.000000) scale(0.100000,-0.100000)" fill="#C4892E" stroke="none">
<path d="M1260 4616 c-84 -23 -144 -60 -225 -141 -87 -87 -136 -168 -175 -290
-18 -55 -33 -81 -73 -122 -47 -49 -55 -53 -97 -53 -67 0 -118 -17 -157 -54
-33 -30 -35 -34 -23 -57 20 -39 52 -69 74 -69 11 0 46 5 78 12 59 12 59 12
114 -43 50 -50 56 -61 73 -134 42 -175 127 -329 257 -465 159 -166 307 -232
476 -210 102 12 168 49 269 149 68 69 94 103 127 171 56 115 73 183 79 327 6
122 6 122 42 156 34 33 47 36 296 91 1055 230 1410 255 1691 121 61 -30 88
-52 203 -174 108 -114 144 -146 194 -171 72 -34 155 -57 241 -66 56 -6 63 -4
85 19 23 25 23 25 -7 69 -102 148 -421 387 -636 477 -164 68 -215 76 -491 75
-258 -2 -442 -14 -625 -40 -180 -26 -536 -93 -765 -144 -219 -50 -219 -50
-248 -22 -16 15 -46 64 -67 109 -50 108 -101 183 -180 266 -171 182 -362 259
-530 213z m159 -196 c92 -17 160 -57 246 -144 86 -87 134 -168 173 -298 60
-194 49 -426 -27 -576 -37 -71 -131 -164 -195 -193 -95 -42 -241 -30 -347 28
-27 14 -82 61 -124 103 -61 63 -84 96 -119 172 -60 127 -77 201 -83 348 -8
202 37 353 135 453 59 61 95 83 163 101 65 18 109 19 178 6z"/>
</g>
<g transform="translate(0.000000,573.000000) scale(0.100000,-0.100000)" fill="#FFFFFF" stroke="none">
<path d="M1200 4399 c-30 -16 -66 -40 -79 -54 -24 -23 -24 -23 30 -92 294
-372 604 -755 637 -787 40 -38 40 -38 57 -13 15 24 55 189 55 231 0 24 -24 56
-329 439 -239 301 -245 307 -280 307 -21 0 -59 -13 -91 -31z M932 3958 c-14
-14 -16 -61 -3 -103 7 -27 416 -601 474 -667 30 -34 85 -38 111 -9 16 17 12
24 -67 132 -155 213 -474 634 -489 646 -11 10 -17 10 -26 1z"/>
</g>
<g transform="translate(0.000000,573.000000) scale(0.100000,-0.100000)" fill="#000000" stroke="none">
<path d="M2885 5523 c-254 -20 -559 -69 -737 -117 -308 -85 -605 -240 -848
-444 -154 -128 -264 -255 -402 -457 -81 -120 -124 -214 -165 -359 -26 -94 -26
-94 -89 -101 -83 -9 -161 -48 -187 -96 -21 -36 -21 -36 1 -78 12 -23 20 -46
17 -51 -3 -4 -49 -35 -102 -68 -138 -85 -163 -109 -170 -157 -4 -36 0 -46 41
-100 57 -73 276 -315 285 -315 20 0 39 -64 45 -150 28 -394 117 -773 237
-1012 183 -364 415 -610 759 -803 187 -105 296 -159 437 -215 81 -32 148 -63
148 -69 0 -5 -24 -44 -53 -86 -47 -68 -55 -74 -73 -65 -25 14 -91 79 -151 148
-46 54 -46 54 -78 25 -32 -29 -32 -29 -6 -80 14 -28 49 -79 77 -113 28 -34 49
-63 47 -65 -7 -7 -111 24 -235 70 -68 25 -131 45 -141 45 -10 0 -29 -11 -42
-25 -24 -25 -24 -25 4 -54 31 -32 110 -73 205 -106 36 -13 83 -30 104 -39 38
-17 38 -17 -25 -63 -65 -47 -138 -112 -138 -123 0 -12 78 -50 103 -50 14 0 54
20 89 45 35 25 90 64 123 86 66 45 43 43 250 24 79 -8 90 0 76 53 -8 28 -18
43 -34 48 -12 3 -46 15 -75 26 -53 20 -53 20 -26 66 36 62 144 212 152 212 4
0 84 -12 177 -26 121 -18 229 -27 377 -31 211 -6 277 -1 523 37 66 10 148 22
182 25 61 7 61 7 117 -106 31 -61 55 -114 52 -116 -3 -3 -75 5 -160 18 -86 12
-158 20 -162 17 -11 -12 17 -88 39 -103 12 -8 53 -25 91 -36 79 -24 92 -9
-103 -120 -93 -53 -116 -71 -133 -102 -11 -22 -17 -42 -13 -45 3 -3 31 -7 63
-9 53 -3 67 1 192 61 74 36 136 63 137 62 2 -1 -4 -25 -12 -52 -27 -89 -17
-151 26 -175 41 -22 78 35 129 200 37 122 49 136 168 200 98 53 117 73 126
130 7 44 7 44 -45 38 -28 -4 -81 -20 -116 -37 -36 -16 -69 -27 -74 -24 -5 3
-27 40 -49 82 -21 42 -48 91 -59 107 -12 17 -21 33 -21 36 0 4 59 26 130 48
450 143 753 331 1111 690 198 198 274 291 386 466 120 187 178 302 274 535
123 302 198 600 158 626 -8 5 -136 7 -284 6 l-271 -4 -23 129 c-69 376 -146
598 -301 869 -85 147 -242 386 -298 454 -196 234 -466 447 -737 580 -286 141
-674 211 -1020 183z m323 -133 c355 -32 723 -185 1022 -427 97 -79 270 -258
341 -353 96 -129 251 -379 324 -525 88 -173 131 -302 189 -565 25 -113 56
-237 68 -275 l23 -70 253 4 c218 3 252 1 252 -12 0 -45 -57 -226 -125 -397
-91 -228 -101 -249 -196 -406 -148 -246 -246 -371 -464 -590 -297 -299 -495
-433 -836 -568 -208 -82 -337 -118 -565 -156 -465 -77 -674 -79 -1094 -9 -252
42 -404 98 -679 248 -222 122 -305 182 -442 320 -291 292 -454 653 -536 1181
-25 164 -25 568 0 731 10 65 24 139 31 165 13 49 13 49 26 -11 46 -221 175
-444 328 -571 129 -106 256 -154 406 -154 206 0 381 120 487 335 56 114 80
216 86 367 5 106 8 128 22 132 106 32 889 193 1151 236 190 32 444 37 588 12
170 -30 200 -48 377 -228 83 -84 168 -161 190 -172 189 -94 381 -105 428 -25
19 32 19 32 -9 84 -36 65 -211 233 -332 319 -174 123 -359 207 -537 245 -220
47 -708 21 -1205 -66 -141 -24 -639 -127 -700 -144 -11 -3 -23 15 -42 63 -110
269 -297 459 -528 538 -69 23 -210 24 -295 1 -32 -9 -61 -15 -63 -13 -9 9 222
228 308 292 344 257 698 386 1220 444 280 30 371 34 528 20z m-1756 -811 c114
-24 260 -122 355 -239 47 -58 151 -243 154 -273 1 -7 25 -33 53 -59 52 -47 52
-47 272 2 228 51 584 118 764 144 183 26 367 38 625 40 233 1 256 -1 335 -22
162 -44 303 -115 481 -242 149 -105 317 -275 295 -298 -10 -10 -168 16 -231
38 -95 33 -139 65 -236 173 -120 133 -178 181 -264 216 -281 117 -636 88
-1660 -135 -260 -57 -260 -57 -316 -111 -56 -55 -56 -55 -62 -176 -6 -144 -23
-212 -78 -326 -50 -102 -146 -203 -231 -245 -100 -49 -231 -53 -347 -12 -146
53 -326 238 -405 419 -38 86 -40 96 -16 90 13 -4 32 -28 52 -67 65 -131 177
-249 290 -307 58 -29 161 -50 229 -45 126 8 260 107 332 244 129 246 83 629
-103 860 -203 253 -494 291 -685 91 -60 -63 -117 -169 -136 -253 -8 -37 -18
-55 -33 -62 -19 -8 -21 -18 -24 -118 -3 -108 -3 -108 -53 -61 -56 52 -49 51
-199 29 -43 -6 -47 -5 -59 22 -11 25 -10 30 5 41 29 21 84 33 154 33 65 0 66
0 112 48 34 34 50 60 57 92 31 140 93 260 176 344 112 113 248 156 397 125z
m120 -482 c347 -437 313 -383 298 -474 -6 -42 -19 -98 -27 -126 -14 -49 -14
-49 -45 -21 -25 24 -352 428 -627 777 -62 78 -62 76 29 126 32 18 70 31 90 30
34 0 43 -10 282 -312z m-425 -409 c291 -388 363 -489 357 -499 -10 -16 -73
-10 -89 9 -63 74 -460 633 -466 657 -10 32 -12 95 -4 95 3 0 93 -118 202 -262z
m-531 -5 c-12 -97 -48 -307 -55 -321 -5 -9 -36 19 -96 87 -49 55 -92 106 -96
114 -6 10 24 35 114 95 67 44 126 81 131 81 4 1 5 -25 2 -56z M3081 2295 c-42
-14 -55 -43 -47 -112 16 -140 145 -312 293 -390 80 -43 250 -99 343 -114 146
-23 337 4 495 69 127 52 321 184 389 264 69 81 79 132 31 164 -31 20 -49 11
-140 -74 -245 -227 -495 -315 -764 -268 -159 28 -305 98 -396 191 -33 33 -71
91 -110 166 -60 116 -60 116 -94 104z"/>
</g>
</svg>
